<svg width="1024" height="1024" viewBox="0 0 1024 1024" xmlns="http://www.w3.org/2000/svg">
  <!-- Background gradient -->
  <defs>
    <linearGradient id="bgGradient" x1="0%" y1="0%" x2="100%" y2="100%">
      <stop offset="0%" style="stop-color:#1565C0;stop-opacity:1" />
      <stop offset="100%" style="stop-color:#0D47A1;stop-opacity:1" />
    </linearGradient>
    <linearGradient id="carGradient" x1="0%" y1="0%" x2="100%" y2="100%">
      <stop offset="0%" style="stop-color:#FFFFFF;stop-opacity:0.95" />
      <stop offset="100%" style="stop-color:#E3F2FD;stop-opacity:0.9" />
    </linearGradient>
    <filter id="shadow" x="-20%" y="-20%" width="140%" height="140%">
      <feDropShadow dx="0" dy="4" stdDeviation="8" flood-color="#000000" flood-opacity="0.3"/>
    </filter>
  </defs>
  
  <!-- Background circle -->
  <circle cx="512" cy="512" r="480" fill="url(#bgGradient)" stroke="#0D47A1" stroke-width="8"/>
  
  <!-- Car silhouette -->
  <g transform="translate(512, 400)" filter="url(#shadow)">
    <!-- Car body -->
    <path d="M -200 -50 
             L -180 -80 
             L -120 -100 
             L 120 -100 
             L 180 -80 
             L 200 -50 
             L 200 40 
             L 170 60 
             L 150 60 
             L 150 40 
             L -150 40 
             L -150 60 
             L -170 60 
             L -200 40 
             Z" 
          fill="url(#carGradient)" 
          stroke="#1565C0" 
          stroke-width="4"/>
    
    <!-- Car windows -->
    <path d="M -160 -50 
             L -140 -75 
             L -90 -90 
             L 90 -90 
             L 140 -75 
             L 160 -50 
             L 120 -50 
             L -120 -50 
             Z" 
          fill="#1565C0" 
          opacity="0.8"/>
    
    <!-- Car wheels -->
    <circle cx="-120" cy="50" r="35" fill="#37474F" stroke="#263238" stroke-width="3"/>
    <circle cx="120" cy="50" r="35" fill="#37474F" stroke="#263238" stroke-width="3"/>
    
    <!-- Wheel rims -->
    <circle cx="-120" cy="50" r="20" fill="#90A4AE" stroke="#607D8B" stroke-width="2"/>
    <circle cx="120" cy="50" r="20" fill="#90A4AE" stroke="#607D8B" stroke-width="2"/>
    
    <!-- Car details -->
    <!-- Headlights -->
    <circle cx="-190" cy="0" r="12" fill="#FFF9C4" stroke="#F57F17" stroke-width="2"/>
    <circle cx="190" cy="0" r="12" fill="#FFF9C4" stroke="#F57F17" stroke-width="2"/>
    
    <!-- Door handles -->
    <rect x="-80" y="-20" width="8" height="25" rx="4" fill="#1565C0"/>
    <rect x="72" y="-20" width="8" height="25" rx="4" fill="#1565C0"/>
  </g>
  
  <!-- Company name "Nanquim" -->
  <text x="512" y="680" 
        font-family="Arial, Helvetica, sans-serif" 
        font-size="72" 
        font-weight="bold" 
        text-anchor="middle" 
        fill="#FFFFFF" 
        stroke="#0D47A1" 
        stroke-width="2">
    NANQUIM
  </text>
  
  <!-- Subtitle -->
  <text x="512" y="740" 
        font-family="Arial, Helvetica, sans-serif" 
        font-size="36" 
        font-weight="normal" 
        text-anchor="middle" 
        fill="#E3F2FD" 
        opacity="0.9">
    LOCAÇÕES
  </text>
  
  <!-- Decorative elements -->
  <g opacity="0.3">
    <!-- Road lines -->
    <rect x="100" y="820" width="824" height="8" rx="4" fill="#FFFFFF"/>
    <rect x="120" y="840" width="60" height="4" rx="2" fill="#FFFFFF"/>
    <rect x="200" y="840" width="60" height="4" rx="2" fill="#FFFFFF"/>
    <rect x="280" y="840" width="60" height="4" rx="2" fill="#FFFFFF"/>
    <rect x="360" y="840" width="60" height="4" rx="2" fill="#FFFFFF"/>
    <rect x="440" y="840" width="60" height="4" rx="2" fill="#FFFFFF"/>
    <rect x="520" y="840" width="60" height="4" rx="2" fill="#FFFFFF"/>
    <rect x="600" y="840" width="60" height="4" rx="2" fill="#FFFFFF"/>
    <rect x="680" y="840" width="60" height="4" rx="2" fill="#FFFFFF"/>
    <rect x="760" y="840" width="60" height="4" rx="2" fill="#FFFFFF"/>
    <rect x="840" y="840" width="60" height="4" rx="2" fill="#FFFFFF"/>
  </g>
  
  <!-- Additional shine effect -->
  <circle cx="512" cy="512" r="480" fill="none" stroke="url(#bgGradient)" stroke-width="4" opacity="0.5"/>
</svg>
